<svg xmlns="http://www.w3.org/2000/svg" width="1809" height="358.785" viewBox="0 0 1809 358.785"><defs><style>.a{opacity:0.1;}.b{fill:none;stroke:#465f5c;}</style></defs><g class="a" transform="translate(0.5 0.5)"><g transform="translate(0 83.733)"><g transform="translate(0 0)"><path class="b" d="M153.9,12.67Q128.245,0,97.689,0,61.471,0,35.257,14T9.032,51.427a21.989,21.989,0,0,0,9.63,18.712,37.183,37.183,0,0,0,22.466,7q23.412,0,33.794-9.076t10.385-20.8q0-12.487-8.02-18.731t-8.024-10.4q0-5.3,5.032-8.7a21.784,21.784,0,0,1,12.483-3.4q11.916,0,15.65,6.416t3.731,21.122l.37,34.331q0,6.79-4.139,9.617T88.651,82.786q-9.6,2.459-29.924,4.343T28.609,91.656q-9.795,2.639-19.2,14.148T0,136.165q0,23.4,15.055,36.6t39.152,13.2q22.585,0,36.7-7.63a42.8,42.8,0,0,0,15.917-14.619,4.1,4.1,0,0,1,7.083.387,34.556,34.556,0,0,0,12.382,13.569,51.187,51.187,0,0,0,28.8,8.293,97.9,97.9,0,0,0,19.644-1.709c.114-.019.225-.044.339-.074a6.032,6.032,0,0,0,4.489-5.829V51.81Q179.562,25.339,153.9,12.67ZM106.53,147.089a25.138,25.138,0,0,1-6.778,17.3l-.109.112a16.782,16.782,0,0,1-12.468,5.648q-9.315,0-11.915-10.166-2.62-10.161-2.609-27.115A117.182,117.182,0,0,1,74.7,110.85q2.046-10.723,5.583-14.5,3.542-3.756,12.658-7.719,8.652-3.75,12.119-8.013a.823.823,0,0,1,.913-.271h0a.824.824,0,0,1,.56.781Z" transform="translate(0 0)"/></g></g><g transform="translate(948.619 83.733)"><g transform="translate(0 0)"><path class="b" d="M153.9,12.67Q128.247,0,97.691,0,61.473,0,35.259,14T9.034,51.427a21.984,21.984,0,0,0,9.63,18.712,37.183,37.183,0,0,0,22.466,7q23.412,0,33.794-9.076t10.385-20.8q0-12.487-8.02-18.731t-8.026-10.4q0-5.3,5.033-8.7a21.785,21.785,0,0,1,12.483-3.4q11.916,0,15.65,6.416t3.731,21.122l.37,34.331q0,6.79-4.139,9.617t-13.74,5.278q-9.6,2.459-29.924,4.343T28.611,91.656q-9.795,2.639-19.2,14.148T0,136.165q0,23.4,15.057,36.6t39.152,13.2q22.582,0,36.7-7.63a42.793,42.793,0,0,0,15.92-14.619,4.1,4.1,0,0,1,7.083.387,34.563,34.563,0,0,0,12.38,13.569,51.2,51.2,0,0,0,28.8,8.293,97.9,97.9,0,0,0,19.644-1.709c.114-.019.225-.044.339-.074a6.032,6.032,0,0,0,4.489-5.829V51.81Q179.564,25.339,153.9,12.67ZM106.532,147.089a25.132,25.132,0,0,1-6.78,17.3l-.107.112a16.783,16.783,0,0,1-12.471,5.648q-9.315,0-11.913-10.166-2.62-10.161-2.61-27.115A117.178,117.178,0,0,1,74.7,110.85q2.045-10.723,5.583-14.5,3.542-3.756,12.658-7.719,8.652-3.75,12.119-8.013a.823.823,0,0,1,.913-.271h0a.824.824,0,0,1,.56.781Z" transform="translate(0 0)"/></g></g><g transform="translate(1388.395 83.733)"><g transform="translate(0 0)"><path class="b" d="M153.9,12.67Q128.247,0,97.691,0,61.473,0,35.259,14T9.034,51.427a21.987,21.987,0,0,0,9.627,18.712,37.194,37.194,0,0,0,22.468,7q23.412,0,33.794-9.076t10.385-20.8q0-12.487-8.02-18.731t-8.026-10.4q0-5.3,5.033-8.7a21.785,21.785,0,0,1,12.483-3.4q11.917,0,15.65,6.416t3.731,21.122l.371,34.331q0,6.79-4.14,9.617T88.653,82.786q-9.6,2.459-29.924,4.343T28.611,91.656q-9.795,2.639-19.2,14.148T0,136.165q0,23.4,15.057,36.6t39.152,13.2q22.582,0,36.7-7.63a42.791,42.791,0,0,0,15.919-14.619,4.1,4.1,0,0,1,7.083.387,34.564,34.564,0,0,0,12.38,13.569,51.2,51.2,0,0,0,28.8,8.293,97.892,97.892,0,0,0,19.644-1.709c.114-.019.225-.044.339-.074a6.033,6.033,0,0,0,4.489-5.829V51.81Q179.564,25.339,153.9,12.67ZM106.532,147.089a25.131,25.131,0,0,1-6.78,17.3l-.108.112a16.782,16.782,0,0,1-12.47,5.648q-9.315,0-11.913-10.166-2.62-10.161-2.61-27.115A117.157,117.157,0,0,1,74.7,110.85q2.045-10.723,5.583-14.5,3.542-3.756,12.658-7.719,8.652-3.75,12.119-8.013a.823.823,0,0,1,.913-.271h0a.824.824,0,0,1,.56.781Z" transform="translate(0 0)"/></g></g><path class="b" d="M169.307,110.246a80.092,80.092,0,0,0-22.09-21.89q-13.251-8.829-29.92-17.87T90.991,55.625q-9.637-5.817-14.659-11.044T71.313,30.122q0-8.03,7.029-13.455t18.272-5.421q15.663,0,25.7,6.427t19.076,18.272a105.75,105.75,0,0,1,13.857,23.5q4.312,10.432,7.34,19.244a3.032,3.032,0,0,0,2.873,2.041h0a3.041,3.041,0,0,0,3.041-3.041V2.86A2.859,2.859,0,0,0,165.646,0h0A2.839,2.839,0,0,0,162.8,2.626a29.994,29.994,0,0,1-3.933,13.439l-.08.137a11.283,11.283,0,0,1-14.543,4.328q-11.095-5.309-21.923-10.89A75.233,75.233,0,0,0,93.4,4.017q-32.532,0-55.021,16.264T15.888,66.269a48.63,48.63,0,0,0,5.823,24.1A61.477,61.477,0,0,0,38.177,109.04a198.438,198.438,0,0,0,26.507,16.869q15.862,8.642,27.914,15.663t17.671,13.053q5.622,6.026,5.623,18.474,0,9.64-7.229,15.061a27.974,27.974,0,0,1-17.27,5.423c-10.162,0-32.466-1.444-32.466-7.847v-.03q0-4.075,7.849-10.174t7.849-18.323c0-21.248-22.553-31.605-37.82-31.605C21.454,125.6,0,133.718,0,153.129q0,22.936,25.652,36.622C46.778,201.024,75.8,203.674,99.564,202.39c18.809-1.014,39.24-5.072,55.084-15.636q23.5-15.663,23.5-46.589A52.138,52.138,0,0,0,169.307,110.246Z" transform="translate(208.653 73.71)"/><path class="b" d="M178.516,25.21Q155.981,0,119.949,0C79.286,0,74.671,20.2,71.911,25.966V21.94A18.182,18.182,0,0,0,53.727,3.756h0A53.726,53.726,0,0,0,0,57.483V260.544a8.611,8.611,0,0,0,8.611,8.611h9.1A54.955,54.955,0,0,0,72.666,214.2V185.959l-.377-22.209c.12.24.24.463.377.7,2.727,5.008,7.528,21.507,47.06,21.507q36.143,0,58.723-25.227,22.585-25.212,22.586-67.005Q201.035,50.456,178.516,25.21ZM124.991,92.216q0,12.427-.566,22.965t-2.058,24.1a71.041,71.041,0,0,1-7.289,24.853q-5.786,11.291-17.372,11.284a26.288,26.288,0,0,1-15.522-4.886q-6.919-4.89-8.4-14.3-1.133-11.654-1.115-28.986V85.82q0-14.305.36-28.8c.257-9.655.617-17.51,1.132-23.529a27.452,27.452,0,0,1,8.4-16q6.922-6.588,14.389-6.587,12.349,0,18.317,11.113a62.091,62.091,0,0,1,7.29,22.965q1.31,11.859,2.435,22.776Z" transform="translate(418.534 83.733)"/><path class="b" d="M0,45.1V167.649a10.8,10.8,0,0,0,10.8,10.8H28.678a45.1,45.1,0,0,0,45.1-45.1V10.8A10.8,10.8,0,0,0,62.982,0H45.1A45.1,45.1,0,0,0,0,45.1Z" transform="translate(653.87 87.489)"/><path class="b" d="M62.992,9.983Q52.213,0,36.7,0A36.063,36.063,0,0,0,10.77,10.36,33.409,33.409,0,0,0,0,35.383,33.842,33.842,0,0,0,10.77,60.8,36.062,36.062,0,0,0,36.7,71.157,36.5,36.5,0,0,0,62.992,60.8,33.857,33.857,0,0,0,73.779,35.383Q73.779,19.947,62.992,9.983Z" transform="translate(653.87 0)"/><path class="b" d="M185.755,132.861a80.1,80.1,0,0,1-20.966,27.321,54.684,54.684,0,0,1-36.252,12.988q-29.081,0-40.6-25.412T76.42,88.091A229.525,229.525,0,0,1,78.114,60.8a135.55,135.55,0,0,1,5.648-26.164,58.663,58.663,0,0,1,11.1-20.328,22.47,22.47,0,0,1,17.694-8.283q8.273,0,12.8,3.765a12.15,12.15,0,0,1,4.516,9.789q0,6.4-4.139,15.81a48.036,48.036,0,0,0-4.141,19.575q0,13.182,11.917,23.529t26.681,10.354q17.03,0,25.73-8.47t8.7-22.4A37.457,37.457,0,0,0,183.5,31.058a88.5,88.5,0,0,0-23.381-17.693A128.405,128.405,0,0,0,133.9,3.577,122.954,122.954,0,0,0,103.35,0Q59.215,0,29.6,25.6T0,93.36q0,41.787,30.177,67.2a106.076,106.076,0,0,0,54.709,24.147,5.851,5.851,0,0,1,4.716,7.864L79.446,219.212a1.854,1.854,0,0,0,.286,1.818h0a1.834,1.834,0,0,0,2.079.583q1.768-.65,4.6-1.58a32.114,32.114,0,0,1,9.977-1.311q13.173,0,19.764,6.911t6.587,20.741q0,10.833-5.082,16.629-5.082,5.779-11.858,5.787a13.386,13.386,0,0,1-3.752-.623,4.457,4.457,0,0,1-2.795-6.107q2.027-4.369,2.029-6.721a14.828,14.828,0,0,0-3.011-8.965q-3.018-4.122-10.164-4.112a11.768,11.768,0,0,0-9.6,4.354,13.9,13.9,0,0,0-3.577,8.893q0,8.33,9.413,13.441a45.044,45.044,0,0,0,21.833,5.111,71.991,71.991,0,0,0,33.88-8.283q15.814-8.283,15.812-28.988,0-11.291-10.164-22.4t-34.259-11.1q-3.384,0-7.527.377-1.2.107-2.208.215a3.065,3.065,0,0,1-3.365-3.411l1.28-11.206a3.715,3.715,0,0,1,3.691-3.291h.036q62.131,0,88.013-50.522c1.713-3.34-3.125-6.429-5.2-3.3A5.8,5.8,0,0,0,185.755,132.861Z" transform="translate(1162.482 83.725)"/><path class="b" d="M208.2,95.231q0,40.874-31.037,68.051T104.1,190.464q-44.337,0-74.217-27.182T0,95.231Q0,54.37,30.265,27.182T104.1,0q42.8,0,73.451,26.988T208.2,95.231Zm-76.726-.385q0-5.394-.77-21.591t-.773-19.278q0-20.817-6.361-34.314T103.714,6.17q-12.346,0-18.893,14.072T78.268,53.977q0,7.33-.581,17.929t-.962,22.94q0,5.4.77,22.17t.773,19.472q0,20.821,6.359,34.314t19.47,13.5q12.724,0,19.28-13.88t6.553-33.929q0-7.708.387-18.314T131.473,94.846Z" transform="translate(1599.802 81.477)"/><path class="b" d="M152.981,12.622A41.771,41.771,0,0,0,122.3,0C87.251,0,73.781,21.627,73.781,19.48V11.936A10.587,10.587,0,0,0,71.86,5.815a10.78,10.78,0,0,0-8.866-4.682H45.107A45.117,45.117,0,0,0,0,46.237V168.775a10.806,10.806,0,0,0,10.806,10.806H28.693a45.088,45.088,0,0,0,44.076-35.587,44.692,44.692,0,0,0,1.012-9.518V48.308a40.322,40.322,0,0,1,5.934-21.054l.086-.139Q86.977,15.435,96.71,15.436a2.836,2.836,0,0,1,1.073.217,3.411,3.411,0,0,1,1.545,4.7q-3.195,6.345-6.391,12.407A43.4,43.4,0,0,0,89.56,50.078q0,12.787,10.341,22.775a34.313,34.313,0,0,0,24.661,9.964q17.314,0,29.173-11.473T165.6,42.55Q165.6,25.237,152.981,12.622Z" transform="translate(764.017 85.225)"/><path class="b" d="M33.8,43.775q-12.74,0-18.706,4.377Q9.754,52.076,6.642,61.726A3.4,3.4,0,0,1,3.41,64.072h0a3.425,3.425,0,0,1-3.322-4.2q5.868-25.774,16-37.388Q27.031,9.948,45.741,9.947q5.969,0,25.467,5.175T93.1,20.295q21.733,0,27.593-18A3.362,3.362,0,0,1,123.9,0h0a3.414,3.414,0,0,1,3.314,4.186q-5.869,25.789-16.006,37.4-10.949,12.535-29.65,12.536-8.756,0-27.658-5.173T33.8,43.775Z" transform="translate(1414.527 1.263)"/></g></svg>