<svg xmlns="http://www.w3.org/2000/svg" xmlns:xlink="http://www.w3.org/1999/xlink" width="1920" height="1080" viewBox="0 0 1920 1080"><defs><style>.a{fill:#fff;stroke:#707070;}.b{clip-path:url(#a);}.c{opacity:0.19;}.d{fill:none;stroke:#dd4737;stroke-width:2px;mix-blend-mode:multiply;isolation:isolate;}.e{fill:#465f5c;stroke:#465f5c;}</style><clipPath id="a"><rect class="a" width="1920" height="1080"/></clipPath></defs><g class="b"><g class="c" transform="matrix(0.891, 0.454, -0.454, 0.891, 1365.059, -428.347)"><path class="d" d="M162.627,598.551c3.153-.116,3.612-3,3.808-4.231.043-.272.083-.543.146-.785,1.276-4.973,2.463-9.867,3.531-14.545,9.15-40.136,10.848-72.9,5.345-103.1-1.842-10.113-4.437-20.232-6.948-30.018-1.09-4.252-2.219-8.647-3.265-12.975l-.322-1.326a111.876,111.876,0,0,1-2.77-13.854l.078.128c17.634,28.428,37.568,59.358,62.732,97.341,19.471,29.392,44.889,55.007,77.709,78.312,29.161,20.712,60.184,36.308,94.793,53.113.25.121.5.253.757.387a10.209,10.209,0,0,0,6.879,1.451l3.07-.517-1.988-2.394c-.629-.757-1.222-1.437-1.778-2.075a33.417,33.417,0,0,1-2.65-3.286c-13.176-19.74-28.572-40.44-47.067-63.282l-2.451-3.03c-14.284-17.672-29.054-35.944-48.2-49.589-17.3-12.33-35.652-25.238-56.118-39.462-20.729-14.408-36.951-26.785-51.049-38.951C180.8,431.994,171.9,413.072,163.3,394.773c-1.3-2.773-2.607-5.546-3.936-8.306l-.1-.2c-.109-.222-.2-.409-.269-.565.14.121.279.243.412.367,34.112,32.125,71.513,65.694,113.849,93.561a344.357,344.357,0,0,0,75.96,37.951c.289.1.582.222.882.347,1.714.711,4.3,1.783,7.236-.345l1.442-1.047-1.038-1.447c-17.963-25.054-37.925-51.567-62.143-75.719-18.623-18.572-39.212-30.432-62.944-36.263-19.585-4.811-35.857-9.356-51.6-15.894-12.207-5.068-25.669-12.133-32.966-26.09a432.357,432.357,0,0,1-20.192-44.984c-.133-.35-.3-.723-.47-1.106-.281-.636-.87-1.96-.693-2.362a1.754,1.754,0,0,1,.243-.153,5.159,5.159,0,0,1,1.307,1.108,9.651,9.651,0,0,0,1.8,1.555,6.31,6.31,0,0,1,1.151,1.09c.218.241.437.48.662.709q4.563,4.568,9.1,9.162c6.517,6.579,13.257,13.38,20,19.962,21.291,20.773,43.554,33.661,68.065,39.4,18.528,4.336,36.569,8.876,53.589,16.649l2,.915.489-2.146a4.683,4.683,0,0,0-1.792-4.746c-.165-.156-.329-.31-.475-.471a475.951,475.951,0,0,0-49.861-48.145c-18.606-15.5-38.235-25.217-60.008-29.709a157.381,157.381,0,0,1-35.174-11.834c-9.344-4.4-17.336-8.822-20.476-18.381q-.835-2.537-1.692-5.071c-1.305-3.889-2.657-7.912-3.837-11.9l-.114-.383a43.85,43.85,0,0,1-1.893-8.47c43.343,38.079,90.2,59.713,143.119,66.093l2.284.274-.293-2.279c-.383-2.99-2.373-4.869-4.13-6.524-.326-.309-.653-.617-.967-.931a285.824,285.824,0,0,0-35.718-30.089c-16.956-12.176-33.311-20.235-50-24.639q-3.551-.936-7.117-1.844c-11.815-3.035-24.033-6.174-35.325-11.231l-1.3-.579c-6.952-3.085-13.517-6-15.722-13.547-1.744-5.971-3.148-12.176-4.5-18.178q-.556-2.457-1.118-4.909c-.071-.307-.161-.627-.255-.957-.492-1.726-.376-1.886-.12-2.038a1.753,1.753,0,0,1,.2-.1,4.926,4.926,0,0,1,1.082,1.085c.289.348.575.688.867.974a190.762,190.762,0,0,0,25.77,21.65c21.154,14.538,40.414,20.842,60.609,19.833.265-.012.548-.005.832,0,1.368.035,3.912.1,4.966-2.477,1.057-2.6-.856-4.387-1.884-5.345-.191-.179-.38-.355-.546-.529-8.155-8.628-18.405-16.329-32.26-24.232-9.108-5.2-19.088-8.3-28.74-11.3-4.054-1.262-8.245-2.565-12.292-4-12.978-4.6-20.941-12.68-23.664-24.007A204.605,204.605,0,0,1,88.571,144.5c-.017-.314-.047-.648-.078-.991-.144-1.574-.149-2.459.267-2.607a.723.723,0,0,1,.191-.049c.293.118.825,1.144,1.08,1.638.231.445.458.875.692,1.238,7.049,10.855,14.982,22.268,25.224,32.182,13.632,13.2,26.979,19.123,42,18.649.31-.01.641,0,.978.017,1.6.066,4.274.18,5.463-2.394,1.317-2.848-.967-4.685-2.064-5.567a8.988,8.988,0,0,1-.787-.676c-14.122-14.613-28.532-24.827-44.053-31.226-21.686-8.94-30.85-32.758-27.177-50.619a20.246,20.246,0,0,0,.317-3.153,17.1,17.1,0,0,1,.321-3.066,132.978,132.978,0,0,1,13.7,24.447c8.611,20.532,26.848,30.11,41.772,36.16l.2.08c1.009.416,3.706,1.537,5.2-.945,1.066-1.733-.1-4.215-.236-4.491-8.824-17.916-17.533-33.488-34.817-42.554-10.505-5.512-16.135-15.481-21-25.222-1.725-3.451-1.718-7.375-1.482-10.758,1.759-25.388,7.434-47.717,17.35-68.263l.893-1.848-1.953-.634c-2.22-.721-4.172-1.291-5.964-1.745-2.48-.629-5.186-1.213-8.515-1.841L94.705,0l-.579,1.288A158.189,158.189,0,0,0,79.662,63.216c-.189,7.46-2.109,12.814-6.045,16.843l-.965.991c-5.98,6.139-11.628,11.938-19.162,15.608a75.589,75.589,0,0,0-27.335,22.048,174.418,174.418,0,0,0-17.36,28.182c-.756,1.511-1.6,2.969-2.494,4.513-2.335,4.035-4.751,8.205-5.725,13.642L0,168.254l3.016-1.236c4.815-1.972,8.42-4.759,11.906-7.455,1.127-.872,2.241-1.735,3.38-2.553C34.33,145.5,52.336,131.468,63.147,110.472a171.268,171.268,0,0,1,9.737-15.916c1.366-2.059,2.73-4.118,4.056-6.193.121-.192.244-.4.369-.6.6-1,.952-1.491,1.246-1.433.059.01.1.024.118.024A5.471,5.471,0,0,1,78.68,87.7c-.019.286-.038.565-.042.827q-.062,3.445-.111,6.891c-.127,8.281-.257,16.843-.688,25.234-.378,7.384-2.967,12.98-7.917,17.119-6.7,5.6-13.233,11.089-19.54,16.712-16.11,14.36-27.732,28.947-35.531,44.592C9.8,209.214,4.616,221.762,4.484,238.008l-.033,4.026,3.014-2.673c18.831-16.708,32.668-34.269,42.618-47.7,8.9-11.983,15.809-25.3,22.508-38.173,1.764-3.392,3.569-6.86,5.409-10.3.731,6.373,1.305,12.724,1.865,18.911.5,5.5,1.012,11.191,1.626,16.771,2.484,22.591-4.773,38.342-22.83,49.575-16.774,10.429-28.978,24.17-36.263,40.831-6.165,14.089-8.106,27.466-5.935,40.9l.257,1.582,1.6-.08a5.157,5.157,0,0,0,4.837-3.787l.045-.111c3.224-8.033,9.214-13.77,14.07-17.871,10.143-8.562,17.4-16.5,22.854-24.945,8.55-13.268,16.348-28.437,23.84-46.376.231-.546.437-1.116.647-1.7a15.446,15.446,0,0,1,1.654-3.6c5.936,15.538,8.042,28.142,1.357,41.677-5.465,11.07-12.7,21.729-23.461,34.573-12.495,14.909-19.942,27.735-24.149,41.585-5.558,18.292-5.257,37.127-4.966,55.344.1,6.129.2,12.467.078,18.7l-.052,2.615,2.458-.9a9.565,9.565,0,0,0,5.016-4.7l3.761-6.222c8.063-13.32,16.4-27.092,23.489-41.322q1.11-2.233,2.234-4.46c6.17-12.266,12.55-24.951,15.095-39.067,2.669-14.81,4.935-26.915,7.125-38.1.255-1.309.487-2.626.719-3.953a75.335,75.335,0,0,1,2.716-11.706l1.565,5.266c1.264,4.241,2.491,8.583,3.678,12.781,2.811,9.94,5.718,20.22,9.368,30.077,3.267,8.808,5.224,16.117-1.633,23.381a17.531,17.531,0,0,0-3.1,5.4c-.27.636-.539,1.27-.832,1.881-16.048,33.391-24,60.4-25.785,87.59-1.5,22.944-.9,46.263-.317,68.816l.059,2.324c.125,4.789.121,9.508.116,14.505,0,2.281,0,4.588.007,6.928l.014,2.754,2.513-1.128a8.254,8.254,0,0,0,4.43-5.077c.116-.281.227-.558.352-.825,25.5-55.194,37.261-103.1,37-150.768a130.346,130.346,0,0,1,1.08-14.918c.026-.251.055-.506.083-.759,4.059,8.711,7.423,17.57,10.7,26.187l.867,2.281c3.515,9.242,4.9,19.552,4.222,31.52-.88,15.627-1.825,34.087-2.161,52.52-.617,34.11-.594,70.355,6.9,105.553,2.087,9.81,5.078,21.2,11.443,31.26.13.2.251.428.376.653C159.262,596.707,160.325,598.636,162.627,598.551Z" transform="matrix(-0.829, 0.559, -0.559, -0.829, 1296.972, 1106.805)"/><path class="e" d="M422.3,16.6v-7.9a.79.79,0,0,0-1.316-.59L402.172,24.91,374.618.2a.784.784,0,0,0-.528-.2H328.248a.79.79,0,0,0-.305,1.519q7.038,2.952,14.064,5.929c11.448,4.839,23.285,9.842,35.006,14.578,4.5,1.819,9.051,3.247,14.32,4.9,2.167.68,4.431,1.391,6.822,2.172-1.752,1.826-3.408,3.579-5,5.267-4.828,5.114-8.995,9.529-13.59,13.53-1.1.955-5.165.324-7.518-.862-17.948-9.042-36.123-18.383-53.7-27.417Q307.017,13.8,295.686,7.988c-3.645-1.868-7.39-3.682-11.012-5.436q-2.542-1.231-5.082-2.471A.8.8,0,0,0,279.244,0H212.852a.79.79,0,0,0-.559,1.347c.212.213.409.451.61.686a5.741,5.741,0,0,0,1.753,1.576q10.774,5.366,21.508,10.822c18.111,9.156,36.835,18.625,55.6,27.206a148.764,148.764,0,0,0,55.915,13.772,127.986,127.986,0,0,1,15.7,1.966c2.278.381,4.553.762,6.831,1.089l1.4,2.278c-1.706,1.461-3.444,2.891-5.183,4.322a134.559,134.559,0,0,0-13.119,11.8c-3.319,3.56-5.923,4.41-10.736,3.5-34.614-6.541-74.909-13.626-115.111-14.875-11.283-.349-22.758-.558-33.855-.759-18.947-.345-38.536-.7-57.9-1.78-24.284-1.358-49.392-2.76-71.25-16.834a.791.791,0,0,0-1.04,1.165l.215.262c4.657,5.7,9.474,11.6,15.248,16.223C94.145,76,113.376,83.795,139.4,88.3a678.471,678.471,0,0,0,77.622,8.993c28.394,1.582,56.887,1.034,83.64.335,9.02-.236,17.994-1.69,27.5-3.231,3.781-.612,7.675-1.244,11.684-1.815-1.813,2.052-3.552,4.039-5.239,5.967-5.122,5.855-9.96,11.386-15,16.486a14.62,14.62,0,0,1-8.778,3.841c-8.424.509-17.009.808-25.311,1.1-7.989.277-16.253.564-24.374,1.04A1166.408,1166.408,0,0,0,99.127,142.3C61.373,149.921,33.208,159.145,7.8,172.2a5.981,5.981,0,0,0-1.9,1.944c-.361.487-.792,1.067-1.361,1.744a.789.789,0,0,0-.093.882.776.776,0,0,0,.787.411c4.94-.571,9.738-1.192,14.436-1.8,10.046-1.3,19.532-2.531,29.1-3.114,14.848-.906,29.965-1.574,44.587-2.221,24.173-1.07,49.171-2.177,73.667-4.379a491.23,491.23,0,0,0,108.315-21.758c6.963-2.275,13.871-4.619,21.185-7.1q3.972-1.347,8.1-2.744-2.293,2.812-4.464,5.509c-4.846,6-9.421,11.658-14.261,17a18.715,18.715,0,0,1-9.24,5.672c-9.6,2.061-19.431,3.917-28.936,5.713-16.192,3.059-32.937,6.222-49.111,10.5C152.23,190.73,105.248,203.906,59.812,216.65Q34.908,223.633,10,230.587a64.025,64.025,0,0,0-6.521,2.335c-.985.394-1.97.787-2.961,1.157a.79.79,0,0,0-.476.985l.974,2.983a.794.794,0,0,0,.705.544c97.935,5.808,186.437-26.914,268.709-61.338q-2.651,3.386-5.168,6.609c-6.083,7.784-11.829,15.139-17.636,22.268a15.417,15.417,0,0,1-6.018,4.162c-8.535,3.531-17.256,7.027-25.691,10.406-15.586,6.244-31.707,12.7-47.295,19.663C121.694,261.317,76.07,282.5,33.739,311.217a106.589,106.589,0,0,0-9.865,7.9c-1.464,1.272-2.929,2.543-4.42,3.775a.788.788,0,0,0-.182,1.005l1.2,2.077a.78.78,0,0,0,.771.39c26.051-2.864,50.186-12.76,74.67-23.519,23.134-10.166,46.522-21.732,71.5-35.36,15.966-8.71,31.739-18.383,46.994-27.736,5.8-3.558,11.778-7.223,17.725-10.809a16.156,16.156,0,0,1-2.743,2.564q-16.9,12.847-33.873,25.6c-24.241,18.264-49.307,37.15-73.575,56.221-27.3,21.451-55.078,45.987-73.395,79.974-1.168,2.169-2.562,4.284-3.911,6.329-.647.98-1.293,1.962-1.921,2.953a.794.794,0,0,0,.164,1.031l2,1.661a.789.789,0,0,0,1,.006c9.219-7.453,18.685-14.932,27.837-22.165,20.884-16.5,42.477-33.571,62.692-51.527,20.3-18.033,39.146-36.784,59.094-56.636,7.916-7.877,16.082-16,24.295-24.024a12.634,12.634,0,0,1-.466,1.929c-2.886,8.182-5.9,16.476-8.819,24.5-6.279,17.265-12.77,35.118-18.381,52.929-11.059,35.1-23.046,76.055-25.3,117.926-.4,7.491-.3,15.15-.2,23.256.052,4.023.106,8.228.106,12.7a.791.791,0,0,0,1.4.5c1.706-2.053,3.344-3.833,4.927-5.555,3.125-3.4,5.824-6.328,7.528-9.8q2.073-4.221,4.183-8.438c6.845-13.745,13.922-27.959,18.963-42.627C221.3,367.182,232.83,310.2,240.035,238.926c1.8-17.814,11.146-29.571,21.038-42.021q.811-1.022,1.627-2.049c-7.471,36.237-8.862,73.387-10.207,109.348-.444,11.818-.9,24.036-1.568,36.03-2.066,37.2,1.552,137.8,7.545,149.423a.793.793,0,0,0,.7.428.721.721,0,0,0,.131-.011.79.79,0,0,0,.651-.669c.334-2.335.549-4.567.757-6.723.416-4.3.808-8.351,2.063-12,9.646-28.047,12.1-57.639,14.48-86.256q.46-5.558.936-11.111c4.66-53.455,3.868-112.161-2.493-184.753-.044-.517-.1-1.058-.156-1.609-.327-3.169-.7-6.764.654-8.691,5.869-8.365,12.308-16.554,18.534-24.47q3.222-4.095,6.424-8.2l.874.5c-.06.547-.114,1.094-.168,1.642-.149,1.514-.3,3.082-.553,4.6a336.851,336.851,0,0,0-3.065,87.614c2.445,25.039,5.994,50.385,9.426,74.9q1.281,9.143,2.545,18.285c3.81,27.722,7.744,52.65,17.346,77.015,3.489,8.855,9.214,16.418,18.561,24.522a.791.791,0,0,0,1.266-.852c-.714-2.093-1.467-4.026-2.194-5.895a49.7,49.7,0,0,1-3.3-10.65c-2.472-16.89-4.086-30.825-5.076-43.849-.835-10.986-1.442-22.183-2.028-33.013-.9-16.592-1.827-33.749-3.6-50.543-3.392-32.146-7.41-64.767-11.3-96.313-2.061-16.739-4.194-34.046-6.217-51.166-.389-3.29-.922-7.795.675-9.932,4.736-6.331,10.073-12.379,15.237-18.229,1.821-2.066,3.644-4.127,5.439-6.2.212.15.4.277.572.389s.365.242.469.324c.514,3.865,1,7.735,1.483,11.6.52,4.154,1.04,8.308,1.6,12.456,5.863,43.6,23.718,86.741,54.582,131.889,5.106,7.468,11.821,13.969,18.315,20.254,2.964,2.869,6.031,5.836,8.892,8.848a.79.79,0,0,0,1.362-.544V277.424a.8.8,0,0,0-.149-.463c-.779-1.077-1.633-2.131-2.458-3.152a32.589,32.589,0,0,1-4.616-6.786l-3.712-8.267c-10.858-24.175-22.086-49.174-32.516-74.014-6.562-15.631-12.888-31.675-19.005-47.19-4.226-10.719-8.6-21.8-13.01-32.66-1.835-4.518-2.061-7.692,2-11.522a147.538,147.538,0,0,0,11.034-12.134c1.574-1.859,3.249-3.833,5.084-5.942,9.722,43.569,28.024,82.969,55.922,120.405.205.273,14.291,11.557,14.611,11.45s22.809,2.177,22.809,1.837l-24.543-37.5c0-.152-11.495-25.558-11.577-25.684l-8.655-13.509C400.667,112.223,387.373,91.479,374.42,71c-.73-1.152-.844-3.745-.2-4.546,3.038-3.792,6.362-7.419,10.21-11.617,1.266-1.382,2.594-2.831,3.995-4.376,1.519,2.744,2.97,5.4,4.383,7.983,3.43,6.272,6.671,12.2,10.087,17.981,4.039,6.835,8.316,13.678,12.453,20.3q2.753,4.406,5.495,8.817a.791.791,0,0,0,.887.345c.34-.1,16.843,9.436,16.843,9.082L422.3,71.925a.785.785,0,0,0-.278-.6L391.209,45.2l30.834-28.017A.787.787,0,0,0,422.3,16.6Z" transform="matrix(0.819, 0.574, -0.574, 0.819, 841.101, 812.3)"/></g></g></svg>