<svg xmlns="http://www.w3.org/2000/svg" width="448.9" height="451.494" viewBox="0 0 448.9 451.494"><defs><style>.a{fill:none;stroke:#dd4737;}</style></defs><g transform="matrix(0.848, 0.53, -0.53, 0.848, 691.44, -1239.74)"><path class="a" d="M185.273,318.55c42.409-36,11.033-68.427,30.686-120.816s114.125-86.6,95.506-143.625S62.528-52.1,9.431,111.131,142.864,354.545,185.273,318.55Z" transform="translate(238.531 1313.696) rotate(5)"/><path class="a" d="M140.8,216.7c32.229-24.487,8.385-46.549,23.32-82.188S250.851,75.6,236.7,36.809,47.519-35.439,7.167,75.6,108.571,241.189,140.8,216.7Z" transform="translate(287.287 1335.442) rotate(8)"/><path class="a" d="M97.072,157.182c22.22-17.761,5.781-33.764,16.078-59.615s59.794-42.732,50.04-70.869S32.761-25.706,4.941,54.835,74.852,174.944,97.072,157.182Z" transform="translate(310.583 1371.791) rotate(8)"/><path class="a" d="M35.569,56.481c8.142-6.382,2.118-12.132,5.891-21.421S63.371,19.7,59.8,9.594,12-9.237,1.811,19.7,27.427,62.863,35.569,56.481Z" transform="translate(353.501 1393.586) rotate(42)"/></g></svg>