<svg xmlns="http://www.w3.org/2000/svg" xmlns:xlink="http://www.w3.org/1999/xlink" width="1920" height="1080" viewBox="0 0 1920 1080"><defs><style>.a{fill:#fff;stroke:#707070;}.b{clip-path:url(#a);}.c{opacity:0.02;}.d{fill:#465f5c;}</style><clipPath id="a"><rect class="a" width="1920" height="1080"/></clipPath></defs><g class="b"><g class="c" transform="translate(-18.211 -62.347)"><g transform="translate(408.039 480.954)"><g transform="translate(0 0)"><path class="d" d="M1027.889,508.383Q924.559,457.362,801.5,457.35q-145.875,0-251.456,56.379-105.633,56.349-105.618,150.75,0,47.161,38.777,75.364,38.766,28.175,90.492,28.186,94.284,0,136.1-36.559t41.829-83.785q0-50.3-32.3-75.437Q686.987,547.134,687,530.369q0-21.331,20.271-35.048Q727.5,481.633,757.549,481.6q47.991,0,63.031,25.846,15.016,25.83,15.029,85.068L837.1,730.791q0,27.345-16.667,38.727-16.713,11.385-55.341,21.257-38.651,9.91-120.521,17.5-81.881,7.6-121.3,18.229-39.445,10.628-77.329,56.983-37.895,46.329-37.9,122.286,0,94.249,60.638,147.4,60.626,53.134,157.687,53.148,90.957,0,147.825-30.734Q814.4,1153.834,838.3,1116.7c6.843-10.629,22.929-9.771,28.528,1.563q16,32.382,49.864,54.647,50.8,33.435,115.984,33.407,45.95,0,79.12-6.881c.454-.078.9-.179,1.361-.3a24.282,24.282,0,0,0,18.078-23.475V666.016Q1131.237,559.4,1027.889,508.383ZM837.1,1049.766a101.227,101.227,0,0,1-27.3,69.688l-.435.455q-21.749,22.733-50.226,22.742-37.513,0-47.98-40.945-10.552-40.92-10.514-109.2a472.124,472.124,0,0,1,8.245-88.7q8.242-43.191,22.489-58.4,14.261-15.127,50.982-31.088,34.84-15.106,48.805-32.276a3.34,3.34,0,0,1,3.683-1.1h0a3.324,3.324,0,0,1,2.25,3.149Z" transform="translate(-408.039 -457.35)"/></g></g><path class="d" d="M1438.914,884.607a322.552,322.552,0,0,0-88.964-88.158q-53.377-35.558-120.508-71.98-67.142-36.4-105.951-59.85-38.817-23.429-59.041-44.48-20.243-21-20.218-58.235,0-32.338,28.307-54.188,28.283-21.837,73.6-21.837,63.087,0,103.524,25.883,40.414,25.89,76.836,73.6,36.395,47.731,55.8,94.629Q1399.68,722,1411.867,757.5a12.219,12.219,0,0,0,11.566,8.221h0a12.252,12.252,0,0,0,12.25-12.25V452.1a11.514,11.514,0,0,0-11.516-11.513h0a11.438,11.438,0,0,0-11.472,10.578q-2.009,30.628-15.834,54.125c-.109.183-.217.366-.326.546a45.434,45.434,0,0,1-58.571,17.433q-44.7-21.374-88.3-43.861A303.073,303.073,0,0,0,1133.2,456.764q-131.019,0-221.608,65.51-90.605,65.509-90.582,185.211,0,55.012,23.455,97.053,23.429,42.082,66.319,75.216,42.844,33.178,106.761,67.937,63.881,34.807,112.418,63.085,48.53,28.324,71.178,52.574t22.645,74.406q0,38.823-29.116,60.661t-69.557,21.836c-40.925,0-130.758-5.816-130.758-31.6v-.12q0-16.41,31.612-40.977,31.6-24.613,31.61-73.8c0-85.581-90.829-127.3-152.314-127.3-61.83,0-148.243,32.684-148.243,110.867q0,92.371,103.323,147.5c85.078,45.4,201.968,56.072,297.675,50.9,75.76-4.091,158.05-20.432,221.864-62.973q94.624-63.084,94.626-187.637Q1474.5,937.18,1438.914,884.607Z" transform="translate(491.39 0)"/><path class="d" d="M1349.164,689.562q-43.413-40.2-105.889-40.2-61.03,0-104.437,41.719-43.42,41.653-43.382,100.778,0,60.718,43.382,102.368,43.408,41.756,104.437,41.721,62.476,0,105.889-41.721,43.415-41.65,43.449-102.368Q1392.613,729.694,1349.164,689.562Z" transform="translate(967.944 293.973)"/></g></g></svg>