<svg xmlns="http://www.w3.org/2000/svg" width="664" height="131.399" viewBox="0 0 664 131.399"><defs><style>.a{fill:#465f5c;}</style></defs><g transform="translate(0 30.751)"><g transform="translate(0 0)"><path class="a" d="M56.521,4.653A45.977,45.977,0,0,0,35.877,0q-13.3,0-22.929,5.141T3.317,18.887a8.076,8.076,0,0,0,3.537,6.872,13.656,13.656,0,0,0,8.251,2.57q8.6,0,12.411-3.333a9.942,9.942,0,0,0,3.814-7.64q0-4.586-2.945-6.879T25.437,6.658a3.738,3.738,0,0,1,1.848-3.2,8,8,0,0,1,4.584-1.25q4.376,0,5.748,2.356t1.37,7.757l.136,12.608a3.97,3.97,0,0,1-1.52,3.532A16.908,16.908,0,0,1,32.558,30.4,77.442,77.442,0,0,1,21.568,32a71.728,71.728,0,0,0-11.061,1.662q-3.6.969-7.051,5.2T0,50.008Q0,58.6,5.529,63.448t14.379,4.847q8.295,0,13.48-2.8a15.719,15.719,0,0,0,5.846-5.369,1.5,1.5,0,0,1,2.6.142,12.691,12.691,0,0,0,4.547,4.983,18.8,18.8,0,0,0,10.576,3.046,35.953,35.953,0,0,0,7.215-.628c.042-.007.083-.016.124-.027A2.215,2.215,0,0,0,65.945,65.5V19.027Q65.945,9.306,56.521,4.653ZM39.124,54.02a9.232,9.232,0,0,1-2.489,6.355l-.04.041a6.163,6.163,0,0,1-4.579,2.074q-3.421,0-4.376-3.734a41.377,41.377,0,0,1-.958-9.958,43.036,43.036,0,0,1,.752-8.088q.751-3.938,2.05-5.325a14.48,14.48,0,0,1,4.649-2.835,11.7,11.7,0,0,0,4.451-2.943.3.3,0,0,1,.335-.1h0a.3.3,0,0,1,.206.287Z" transform="translate(0 0)"/></g></g><g transform="translate(348.387 30.751)"><g transform="translate(0 0)"><path class="a" d="M56.522,4.653A45.98,45.98,0,0,0,35.878,0q-13.3,0-22.929,5.141T3.318,18.887a8.074,8.074,0,0,0,3.537,6.872,13.656,13.656,0,0,0,8.251,2.57q8.6,0,12.411-3.333a9.942,9.942,0,0,0,3.814-7.64q0-4.586-2.945-6.879T25.437,6.658a3.739,3.739,0,0,1,1.849-3.2,8,8,0,0,1,4.585-1.25q4.376,0,5.748,2.356t1.37,7.757l.136,12.608a3.97,3.97,0,0,1-1.52,3.532A16.918,16.918,0,0,1,32.558,30.4,77.441,77.441,0,0,1,21.568,32a71.712,71.712,0,0,0-11.061,1.662q-3.6.969-7.051,5.2T0,50.008Q0,58.6,5.53,63.448t14.379,4.847q8.293,0,13.479-2.8a15.716,15.716,0,0,0,5.847-5.369,1.5,1.5,0,0,1,2.6.142,12.693,12.693,0,0,0,4.547,4.983,18.8,18.8,0,0,0,10.576,3.046,35.953,35.953,0,0,0,7.214-.628c.042-.007.083-.016.124-.027A2.215,2.215,0,0,0,65.946,65.5V19.027Q65.946,9.306,56.522,4.653ZM39.124,54.02a9.23,9.23,0,0,1-2.49,6.355l-.039.041a6.164,6.164,0,0,1-4.58,2.074q-3.421,0-4.375-3.734a41.37,41.37,0,0,1-.958-9.958,43.034,43.034,0,0,1,.752-8.088q.751-3.938,2.05-5.325a14.48,14.48,0,0,1,4.649-2.835,11.7,11.7,0,0,0,4.451-2.943.3.3,0,0,1,.335-.1h0a.3.3,0,0,1,.206.287Z" transform="translate(0 0)"/></g></g><g transform="translate(509.897 30.751)"><g transform="translate(0 0)"><path class="a" d="M56.522,4.653A45.98,45.98,0,0,0,35.878,0q-13.3,0-22.929,5.141T3.318,18.887a8.075,8.075,0,0,0,3.536,6.872,13.66,13.66,0,0,0,8.252,2.57q8.6,0,12.411-3.333a9.942,9.942,0,0,0,3.814-7.64q0-4.586-2.945-6.879T25.438,6.658a3.738,3.738,0,0,1,1.849-3.2,8,8,0,0,1,4.584-1.25q4.376,0,5.748,2.356t1.37,7.757l.136,12.608a3.97,3.97,0,0,1-1.52,3.532A16.915,16.915,0,0,1,32.558,30.4,77.44,77.44,0,0,1,21.569,32a71.712,71.712,0,0,0-11.061,1.662q-3.6.969-7.051,5.2T0,50.008Q0,58.6,5.53,63.448t14.379,4.847q8.294,0,13.479-2.8a15.715,15.715,0,0,0,5.847-5.369,1.5,1.5,0,0,1,2.6.142,12.694,12.694,0,0,0,4.547,4.983,18.8,18.8,0,0,0,10.576,3.046,35.952,35.952,0,0,0,7.214-.628c.042-.007.083-.016.124-.027A2.215,2.215,0,0,0,65.946,65.5V19.027Q65.946,9.306,56.522,4.653ZM39.125,54.02a9.23,9.23,0,0,1-2.49,6.355l-.04.041a6.163,6.163,0,0,1-4.58,2.074q-3.421,0-4.375-3.734a41.374,41.374,0,0,1-.958-9.958,43.027,43.027,0,0,1,.752-8.088q.751-3.938,2.05-5.325a14.482,14.482,0,0,1,4.649-2.835,11.7,11.7,0,0,0,4.451-2.943.3.3,0,0,1,.335-.1h0a.3.3,0,0,1,.206.287Z" transform="translate(0 0)"/></g></g><path class="a" d="M62.179,40.489a29.414,29.414,0,0,0-8.113-8.039Q49.2,29.207,43.078,25.886t-9.661-5.458a26.619,26.619,0,0,1-5.384-4.056,7.334,7.334,0,0,1-1.843-5.31,6.024,6.024,0,0,1,2.581-4.942A10.677,10.677,0,0,1,35.482,4.13a17.242,17.242,0,0,1,9.44,2.36A27.98,27.98,0,0,1,51.928,13.2a38.838,38.838,0,0,1,5.089,8.629q1.584,3.831,2.7,7.068a1.114,1.114,0,0,0,1.055.75h0a1.117,1.117,0,0,0,1.117-1.117V1.05A1.05,1.05,0,0,0,60.834,0h0a1.043,1.043,0,0,0-1.046.964A11.016,11.016,0,0,1,58.344,5.9l-.029.05a4.144,4.144,0,0,1-5.341,1.59q-4.075-1.95-8.051-4A27.63,27.63,0,0,0,34.3,1.475q-11.947,0-20.207,5.973T5.835,24.338a17.86,17.86,0,0,0,2.138,8.85,22.578,22.578,0,0,0,6.048,6.858,72.877,72.877,0,0,0,9.735,6.2q5.825,3.174,10.252,5.752a29.152,29.152,0,0,1,6.49,4.794Q42.562,59,42.562,63.572A6.523,6.523,0,0,1,39.907,69.1a10.274,10.274,0,0,1-6.343,1.992c-3.732,0-11.923-.53-11.923-2.882V68.2q0-1.5,2.883-3.737t2.883-6.729c0-7.8-8.283-11.607-13.89-11.607C7.879,46.129,0,49.109,0,56.238q0,8.423,9.421,13.45c7.759,4.14,18.417,5.113,27.145,4.642,6.908-.372,14.411-1.863,20.23-5.742q8.63-5.752,8.629-17.11A19.148,19.148,0,0,0,62.179,40.489Z" transform="translate(76.629 27.07)"/><path class="a" d="M65.561,9.259Q57.285,0,44.052,0C29.118,0,27.424,7.419,26.41,9.536V8.058A6.677,6.677,0,0,0,19.731,1.38h0A19.731,19.731,0,0,0,0,21.111V95.687a3.162,3.162,0,0,0,3.162,3.163H6.505A20.182,20.182,0,0,0,26.687,78.667V68.295l-.138-8.157c.044.088.088.17.138.258,1,1.839,2.765,7.9,17.283,7.9q13.274,0,21.566-9.265t8.295-24.608Q73.831,18.53,65.561,9.259ZM45.9,33.867q0,4.564-.208,8.434T44.94,51.15a26.09,26.09,0,0,1-2.677,9.127,6.817,6.817,0,0,1-6.38,4.144,9.655,9.655,0,0,1-5.7-1.795A7.56,7.56,0,0,1,27.1,57.374q-.416-4.28-.41-10.645V31.518q0-5.254.132-10.576c.094-3.546.226-6.431.416-8.641a10.082,10.082,0,0,1,3.086-5.877,7.652,7.652,0,0,1,5.285-2.419,7.168,7.168,0,0,1,6.727,4.081,22.8,22.8,0,0,1,2.677,8.434q.481,4.355.894,8.365Z" transform="translate(153.709 30.751)"/><path class="a" d="M0,16.564V61.57a3.965,3.965,0,0,0,3.966,3.965h6.567A16.563,16.563,0,0,0,27.1,48.973V3.965A3.965,3.965,0,0,0,23.13,0H16.564A16.563,16.563,0,0,0,0,16.564Z" transform="translate(240.138 32.131)"/><path class="a" d="M23.134,3.666A13.692,13.692,0,0,0,13.478,0,13.245,13.245,0,0,0,3.955,3.8,12.27,12.27,0,0,0,0,12.995a12.429,12.429,0,0,0,3.955,9.334,13.244,13.244,0,0,0,9.523,3.8,13.406,13.406,0,0,0,9.656-3.8A12.434,12.434,0,0,0,27.1,12.995,12.152,12.152,0,0,0,23.134,3.666Z" transform="translate(240.138 0)"/><path class="a" d="M68.22,48.794a29.416,29.416,0,0,1-7.7,10.034A20.083,20.083,0,0,1,47.206,63.6q-10.68,0-14.911-9.333t-4.23-21.913a84.3,84.3,0,0,1,.622-10.024,49.781,49.781,0,0,1,2.074-9.609,21.544,21.544,0,0,1,4.078-7.466,8.252,8.252,0,0,1,6.5-3.042,7.157,7.157,0,0,1,4.7,1.383A4.462,4.462,0,0,1,47.7,7.19,15.056,15.056,0,0,1,46.177,13a17.641,17.641,0,0,0-1.521,7.189q0,4.841,4.377,8.641a14.563,14.563,0,0,0,9.8,3.8q6.254,0,9.449-3.111a10.963,10.963,0,0,0,3.2-8.226,13.756,13.756,0,0,0-4.087-9.886,32.5,32.5,0,0,0-8.587-6.5,47.158,47.158,0,0,0-9.628-3.594A45.156,45.156,0,0,0,37.956,0Q21.747,0,10.872,9.4T0,34.287Q0,49.634,11.083,58.966a38.957,38.957,0,0,0,20.092,8.868,2.149,2.149,0,0,1,1.732,2.888l-3.73,9.784a.681.681,0,0,0,.105.668h0a.674.674,0,0,0,.764.214q.649-.239,1.689-.58a11.8,11.8,0,0,1,3.664-.482q4.838,0,7.259,2.538t2.419,7.617a8.984,8.984,0,0,1-1.866,6.107,5.65,5.65,0,0,1-4.355,2.125,4.916,4.916,0,0,1-1.378-.229,1.637,1.637,0,0,1-1.026-2.243,6.521,6.521,0,0,0,.745-2.468,5.446,5.446,0,0,0-1.106-3.292,4.318,4.318,0,0,0-3.733-1.51,4.322,4.322,0,0,0-3.525,1.6,5.106,5.106,0,0,0-1.314,3.266q0,3.059,3.457,4.936a16.543,16.543,0,0,0,8.018,1.877,26.439,26.439,0,0,0,12.443-3.042q5.808-3.042,5.807-10.646,0-4.147-3.733-8.226T40.928,74.658q-1.243,0-2.764.138-.44.039-.811.079a1.126,1.126,0,0,1-1.236-1.253l.47-4.115A1.364,1.364,0,0,1,37.943,68.3h.013q22.818,0,32.323-18.554c.629-1.226-1.148-2.361-1.911-1.213A2.129,2.129,0,0,0,68.22,48.794Z" transform="translate(426.929 30.748)"/><path class="a" d="M76.462,34.974a31.845,31.845,0,0,1-11.4,24.992A39.424,39.424,0,0,1,38.23,69.949q-16.283,0-27.257-9.983A32.367,32.367,0,0,1,0,34.974,32.186,32.186,0,0,1,11.115,9.983Q22.229,0,38.23,0A39.444,39.444,0,0,1,65.206,9.912,31.955,31.955,0,0,1,76.462,34.974Zm-28.178-.141q0-1.981-.283-7.929t-.284-7.08a29.6,29.6,0,0,0-2.336-12.6Q43.045,2.267,38.09,2.266q-4.534,0-6.939,5.168a29.139,29.139,0,0,0-2.407,12.389q0,2.692-.213,6.585t-.353,8.425q0,1.985.283,8.142t.284,7.151a29.6,29.6,0,0,0,2.336,12.6q2.337,4.958,7.15,4.956,4.673,0,7.081-5.1a29.062,29.062,0,0,0,2.407-12.461q0-2.831.142-6.726T48.284,34.833Z" transform="translate(587.538 29.923)"/><path class="a" d="M56.183,4.636A15.341,15.341,0,0,0,44.915,0C32.044,0,27.1,7.943,27.1,7.154V4.384a3.888,3.888,0,0,0-.706-2.248A3.959,3.959,0,0,0,23.135.416H16.566A16.57,16.57,0,0,0,0,16.981v45a3.969,3.969,0,0,0,3.968,3.969h6.569a16.559,16.559,0,0,0,16.187-13.07,16.414,16.414,0,0,0,.372-3.5V17.741a14.809,14.809,0,0,1,2.179-7.732l.032-.051q2.635-4.289,6.21-4.289a1.042,1.042,0,0,1,.394.08,1.253,1.253,0,0,1,.567,1.725Q35.306,9.8,34.132,12.03a15.939,15.939,0,0,0-1.24,6.361,11.337,11.337,0,0,0,3.8,8.364,12.6,12.6,0,0,0,9.057,3.66A14.792,14.792,0,0,0,56.46,26.2a14.108,14.108,0,0,0,4.359-10.575A15.028,15.028,0,0,0,56.183,4.636Z" transform="translate(280.59 31.299)"/><path class="a" d="M12.414,16.077q-4.679,0-6.87,1.608a9.643,9.643,0,0,0-3.1,4.985,1.247,1.247,0,0,1-1.187.862h0a1.258,1.258,0,0,1-1.22-1.542Q2.187,12.524,5.91,8.258q4.018-4.6,10.889-4.6,2.192,0,9.353,1.9a71.012,71.012,0,0,0,8.039,1.9q7.982,0,10.134-6.612A1.235,1.235,0,0,1,45.5,0h0A1.254,1.254,0,0,1,46.72,1.537q-2.155,9.471-5.878,13.736a13.72,13.72,0,0,1-10.889,4.6,43.554,43.554,0,0,1-10.158-1.9Q12.85,16.079,12.414,16.077Z" transform="translate(519.495 0.464)"/></svg>