<svg xmlns="http://www.w3.org/2000/svg" xmlns:xlink="http://www.w3.org/1999/xlink" width="254" height="178" viewBox="0 0 254 178"><defs><style>.a{fill:#fff;stroke:#707070;}.b{clip-path:url(#a);}.c{fill:#f8f7f5;stroke:#465f5c;stroke-width:2px;}.d{fill:#465f5c;}</style><clipPath id="a"><rect class="a" width="254" height="178"/></clipPath></defs><g class="b"><path class="c" d="M2255.107,2232.045c47.82-36.45,5.253-73.216,27.31-130.1s135.219-95.117,114.323-157.033-307.579-89.552-367.172,87.681S2207.288,2268.5,2255.107,2232.045Z" transform="translate(-2062.644 -2087.823)"/><g transform="translate(-352.039 -406.587)"><g transform="translate(408.039 442.922)"><g transform="translate(0 0)"><path class="d" d="M443.889,460.3A29.161,29.161,0,0,0,430.8,457.35a30.464,30.464,0,0,0-14.544,3.261q-6.109,3.259-6.109,8.719a5.122,5.122,0,0,0,2.243,4.359,8.665,8.665,0,0,0,5.234,1.63q5.453,0,7.872-2.115a6.305,6.305,0,0,0,2.419-4.846A5.188,5.188,0,0,0,426.043,464q-1.87-1.452-1.869-2.422a2.371,2.371,0,0,1,1.172-2.027,5.074,5.074,0,0,1,2.908-.793q2.776,0,3.646,1.495a10.314,10.314,0,0,1,.869,4.92l.086,8a2.517,2.517,0,0,1-.964,2.24,10.713,10.713,0,0,1-3.2,1.229,49.065,49.065,0,0,1-6.971,1.012A45.523,45.523,0,0,0,414.7,478.7a9.118,9.118,0,0,0-4.472,3.3,12.284,12.284,0,0,0,1.315,15.6,13.333,13.333,0,0,0,9.12,3.074,17.945,17.945,0,0,0,8.55-1.778,9.966,9.966,0,0,0,3.708-3.406.954.954,0,0,1,1.65.09,8.045,8.045,0,0,0,2.884,3.161,11.922,11.922,0,0,0,6.708,1.932,22.831,22.831,0,0,0,4.576-.4c.026,0,.052-.01.079-.018a1.4,1.4,0,0,0,1.046-1.358V469.419Q449.867,463.253,443.889,460.3Zm-11.035,31.312a5.855,5.855,0,0,1-1.579,4.031l-.025.026a3.91,3.91,0,0,1-2.9,1.315,2.712,2.712,0,0,1-2.775-2.368,26.238,26.238,0,0,1-.608-6.316,27.31,27.31,0,0,1,.477-5.13,7.076,7.076,0,0,1,1.3-3.377,9.176,9.176,0,0,1,2.949-1.8,7.422,7.422,0,0,0,2.823-1.867.193.193,0,0,1,.213-.063h0a.192.192,0,0,1,.13.182Z" transform="translate(-408.039 -457.35)"/></g></g><path class="d" d="M796.454,466.268a18.656,18.656,0,0,0-5.146-5.1q-3.087-2.057-6.97-4.163t-6.128-3.462a16.877,16.877,0,0,1-3.415-2.573,4.652,4.652,0,0,1-1.169-3.368,3.821,3.821,0,0,1,1.637-3.134,6.771,6.771,0,0,1,4.257-1.263,10.934,10.934,0,0,1,5.988,1.5,17.753,17.753,0,0,1,4.444,4.257,24.623,24.623,0,0,1,3.228,5.473q1.005,2.43,1.71,4.483a.707.707,0,0,0,.669.475h0a.709.709,0,0,0,.708-.708v-17.43a.666.666,0,0,0-.666-.666h0a.662.662,0,0,0-.664.612,6.989,6.989,0,0,1-.916,3.13l-.019.032a2.628,2.628,0,0,1-3.388,1.008q-2.585-1.236-5.107-2.537a17.529,17.529,0,0,0-6.736-1.31,21.287,21.287,0,0,0-12.817,3.789,12.442,12.442,0,0,0-5.239,10.712,11.324,11.324,0,0,0,1.357,5.613,14.318,14.318,0,0,0,3.836,4.35,46.235,46.235,0,0,0,6.175,3.929q3.695,2.013,6.5,3.649a18.485,18.485,0,0,1,4.117,3.041,6.13,6.13,0,0,1,1.31,4.3,4.139,4.139,0,0,1-1.684,3.508,6.517,6.517,0,0,1-4.023,1.263c-2.367,0-7.563-.336-7.563-1.828v-.007q0-.949,1.828-2.37a5.076,5.076,0,0,0,1.828-4.268c0-4.95-5.253-7.363-8.809-7.363-3.576,0-8.574,1.89-8.574,6.412q0,5.343,5.976,8.531c4.921,2.626,11.681,3.243,17.217,2.944,4.382-.237,9.141-1.182,12.832-3.642q5.473-3.649,5.473-10.852A12.147,12.147,0,0,0,796.454,466.268Z" transform="translate(-300.372 0)"/><path class="d" d="M1110.13,651.686a8.684,8.684,0,0,0-6.124-2.325,8.4,8.4,0,0,0-6.04,2.413,7.782,7.782,0,0,0-2.509,5.829,7.881,7.881,0,0,0,2.509,5.921,8.4,8.4,0,0,0,6.04,2.413,8.5,8.5,0,0,0,6.124-2.413,7.886,7.886,0,0,0,2.513-5.921A7.708,7.708,0,0,0,1110.13,651.686Z" transform="translate(-591.675 -179.697)"/></g></g></svg>